<?xml version="1.0" encoding="utf-8"?>
<?xml-stylesheet type="text/xsl" href="rss1.xsl"?>
<rss version="2.0" xmlns:atom="http://www.w3.org/2005/Atom" xmlns:content="http://purl.org/rss/1.0/modules/content/" xmlns:dc="http://purl.org/dc/elements/1.1/" xmlns:media="http://search.yahoo.com/mrss/">
<channel>
 <title>Getty</title>
 <link>http://www.gettyimg.com/</link>
 <atom:link href="http://www.gettyimg.com/" rel="self" type="application/rss+xml" />

 
                <item>
                <title><![CDATA[【Requests】[REQ AUD] - VA - NOW That's What I Call Music! (All Volumes)]]></title>
                <link><![CDATA[https://sharemania.us/threads/va-now-thats-what-i-call-music-all-volumes.235987/]]></link>
                <description><![CDATA[<article>
<blockquote class="messageText SelectQuoteContainer ugc baseHtml">
<div style="text-align: center"><span style="font-family: 'Times New Roman'"><span style="font-size: 18px">it would be kind of impossible, but if anyone has all the volumes in lossless, i'd appreciate it!</span></span>​</div>
<div class="messageTextEndMarker">&nbsp;</div>
</blockquote>
</article>]]></description>
                <author><![CDATA[Nuric]]></author>
                </item>

                
                <item>
                <title><![CDATA[【PRORES HD】Ariana Grande - yes, and? (Master ProRes 4K 2160p)]]></title>
                <link><![CDATA[https://sharemania.us/threads/ariana-grande-yes-and-master-prores-4k-2160p.235985/]]></link>
                <description><![CDATA[<article>
<blockquote class="messageText SelectQuoteContainer ugc baseHtml">
Lol you're dreaming.
<div class="messageTextEndMarker">&nbsp;</div>
</blockquote>
</article>]]></description>
                <author><![CDATA[stargamer]]></author>
                </item>

                
                <item>
                <title><![CDATA[【Requests】[REQ AUD] - Justin Timberlake - Sanctified/Selfish]]></title>
                <link><![CDATA[https://sharemania.us/threads/justin-timberlake-sanctified-selfish.235986/]]></link>
                <description><![CDATA[<article>
<blockquote class="messageText SelectQuoteContainer ugc baseHtml">
<div style="text-align: center"><img src="https://i.imgur.com/G6atLsC.png" class="bbCodeImage LbImage" alt="[​IMG]" data-url="https://i.imgur.com/G6atLsC.png" style=""><br>
<img src="https://i.imgur.com/BvLa4Ep.jpg" class="bbCodeImage LbImage" alt="[​IMG]" data-url="https://i.imgur.com/BvLa4Ep.jpg" style=""><br>
<img src="https://i.imgur.com/VUq1jmV.jpg" class="bbCodeImage LbImage" alt="[​IMG]" data-url="https://i.imgur.com/VUq1jmV.jpg" style=""><br>
<br>
​</div>
<div class="ToggleTriggerAnchor bbCodeSpoilerContainer">
<button type="button" class="button bbCodeSpoilerButton ToggleTrigger Tooltip JsOnly" data-target="> .SpoilerTarget"><span>Spoiler: <span class="SpoilerTitle">Mediainfo</span></span></button>
<div class="SpoilerTarget bbCodeSpoilerText">General<br>
Complete name : H:\\stargamerserver01\UMG24\ArianaGrande_yesand_USUV72400145.mov<br>
Format : MPEG-4<br>
Format profile : QuickTime<br>
Codec ID : qt 2005.03 (qt )<br>
File size : 21.2 GiB<br>
Duration : 4 min 34 s<br>
Overall bit rate mode : Variable<br>
Overall bit rate : 664 Mb/s<br>
Encoded date : UTC 2024-01-11 16:21:28<br>
Tagged date : UTC 2024-01-11 16:22:27<br>
Writing library : Apple QuickTime<br>
©TIM : 00:00:00:00<br>
©TSC : 24000<br>
©TSZ : 1001<br>
<br>
Video<br>
ID : 1<br>
Format : ProRes<br>
Format version : Version 0<br>
Format profile : 422 HQ<br>
Codec ID : apch<br>
Duration : 4 min 34 s<br>
Bit rate mode : Variable<br>
Bit rate : 662 Mb/s<br>
Width : 3 840 pixels<br>
Height : 2 160 pixels<br>
Display aspect ratio : 16:9<br>
Frame rate mode : Constant<br>
Frame rate : 23.976 (24000/1001) FPS<br>
Color space : YUV<br>
Chroma subsampling : 4:2:2<br>
Scan type : Progressive<br>
Bits/(Pixel*Frame) : 3.329<br>
Stream size : 21.1 GiB (100%)<br>
Writing library : Apple<br>
Language : English<br>
Encoded date : UTC 2024-01-11 16:21:28<br>
Tagged date : UTC 2024-01-11 16:21:28<br>
Color primaries : BT.709<br>
Transfer characteristics : BT.709<br>
Matrix coefficients : BT.709<br>
<br>
Audio<br>
ID : 2<br>
Format : PCM<br>
Format settings, Endianness : Little<br>
Format settings, Sign : Signed<br>
Codec ID : sowt<br>
Duration : 4 min 34 s<br>
Bit rate mode : Constant<br>
Bit rate : 1 536 kb/s<br>
Channel(s) : 2 channels<br>
Channel positions : Front: L R<br>
Sampling rate : 48.0 kHz<br>
Bit depth : 16 bits<br>
Stream size : 50.2 MiB (0%)<br>
Language : English<br>
Encoded date : UTC 2024-01-11 16:21:28<br>
Tagged date : UTC 2024-01-11 16:21:28<br>
<br>
Other<br>
ID : 3<br>
Type : Time code<br>
Format : QuickTime TC<br>
Duration : 4 min 34 s<br>
Time code of first frame : 00:00:00:00<br>
Time code, striped : Yes<br>
Language : English<br>
Encoded date : UTC 2024-01-11 16:21:28<br>
Tagged date : UTC 2024-01-11 16:21:28</div>
</div><div style="text-align: center"><br>
Download link:<br>
<div class="bbCodeBlock bbCodeVfcHH HiddenContent">
<div class="attribution type">Hidden Content:</div>
<blockquote>You must either reply or click 'Like' to see the hidden information contained here.</blockquote>
</div></div>
<div class="messageTextEndMarker">&nbsp;</div>
</blockquote>
</article>]]></description>
                <author><![CDATA[alvrodaco]]></author>
                </item>

                
                <item>
                <title><![CDATA[【Requests】[REQ AUD] - Jão The town]]></title>
                <link><![CDATA[https://sharemania.us/threads/j%C3%A3o-the-town.235988/]]></link>
                <description><![CDATA[<article>
<blockquote class="messageText SelectQuoteContainer ugc baseHtml">
Thank you so much<br>
Edit:<br>
i can't download the file
<div class="messageTextEndMarker">&nbsp;</div>
</blockquote>
</article>]]></description>
                <author><![CDATA[brendo098]]></author>
                </item>

                
                <item>
                <title><![CDATA[【Requests】[REQ AUD] - Anitta festival da virada 2023]]></title>
                <link><![CDATA[https://sharemania.us/threads/anitta-festival-da-virada-2023.235989/]]></link>
                <description><![CDATA[<article>
<blockquote class="messageText SelectQuoteContainer ugc baseHtml">
thanks
<div class="messageTextEndMarker">&nbsp;</div>
</blockquote>
</article>]]></description>
                <author><![CDATA[brendo098]]></author>
                </item>

                </channel></rss>